HIERARCHY
ROOT Hips
{
	OFFSET -3.958830 18.904000 13.208200
	CHANNELS 6 Xposition Yposition Zposition Zrotation Yrotation Xrotation 
	JOINT LHipJoint
	{
		OFFSET 0.000000 0.000000 0.000000
		CHANNELS 3 Zrotation Yrotation Xrotation
		JOINT LeftUpLeg
		{
			OFFSET 1.800000 -1.400000 0.085000
			CHANNELS 3 Zrotation Yrotation Xrotation
			JOINT LeftLeg
			{
				OFFSET 2.215000 -6.000000 0.000000
				CHANNELS 3 Zrotation Yrotation Xrotation
				JOINT LeftFoot
				{
					OFFSET 2.500000 -6.900000 0.000000
					CHANNELS 3 Zrotation Yrotation Xrotation
					JOINT LeftToeBase
					{
						OFFSET 0.200000 -0.500000 1.950000
						CHANNELS 3 Zrotation Yrotation Xrotation
						End Site
						{
							OFFSET 0.000000 0.000000 0.000000
						}
					}
				}
			}
		}
	}
	JOINT RHipJoint
	{
		OFFSET 0.000000 0.000000 0.000000
		CHANNELS 3 Zrotation Yrotation Xrotation
		JOINT RightUpLeg
		{
			OFFSET -1.800000 -1.400000 0.085000
			CHANNELS 3 Zrotation Yrotation Xrotation
			JOINT RightLeg
			{
				OFFSET -2.215000 -6.000000 0.000000
				CHANNELS 3 Zrotation Yrotation Xrotation
				JOINT RightFoot
				{
					OFFSET -2.500000 -6.900000 0.000000
					CHANNELS 3 Zrotation Yrotation Xrotation
					JOINT RightToeBase
					{
						OFFSET -0.200000 -0.500000 1.950000
						CHANNELS 3 Zrotation Yrotation Xrotation
						End Site
						{
							OFFSET 0.000000 0.000000 0.000000
						}
					}
				}
			}
		}
	}
	JOINT LowerBack
	{
		OFFSET 0.000000 0.000000 0.000000
		CHANNELS 3 Zrotation Yrotation Xrotation
		JOINT Spine
		{
			OFFSET -0.087000 1.940000 -0.288900
			CHANNELS 3 Zrotation Yrotation Xrotation
			JOINT Spine1
			{
				OFFSET 0.000000 1.950000 0.060000
				CHANNELS 3 Zrotation Yrotation Xrotation
				JOINT Neck
				{
					OFFSET 0.000000 0.000000 0.000000
					CHANNELS 3 Zrotation Yrotation Xrotation
					JOINT Neck1
					{
						OFFSET 0.000000 1.600000 0.340000
						CHANNELS 3 Zrotation Yrotation Xrotation
						JOINT Head
						{
							OFFSET 0.000000 1.667000 -0.240000
							CHANNELS 3 Zrotation Yrotation Xrotation
							End Site
							{
								OFFSET 0.000000 0.000000 0.000000
							}
						}
					}
				}
				JOINT LeftShoulder
				{
					OFFSET 0.000000 0.000000 0.000000
					CHANNELS 3 Zrotation Yrotation Xrotation
					JOINT LeftArm
					{
						OFFSET 2.700000 1.550000 -0.730000
						CHANNELS 3 Zrotation Yrotation Xrotation
						JOINT LeftForeArm
						{
							OFFSET 5.450000 0.000000 0.000000
							CHANNELS 3 Zrotation Yrotation Xrotation
							JOINT LeftHand
							{
								OFFSET 3.450000 0.000000 0.000000
								CHANNELS 3 Zrotation Yrotation Xrotation
								JOINT LeftHandIndex1
								{
									OFFSET 0.750000 0.000000 0.000000
									CHANNELS 3 Zrotation Yrotation Xrotation
									End Site
									{
										OFFSET 0.000000 0.000000 0.000000
									}
								}
							}
						}
					}
				}
				JOINT RightShoulder
				{
					OFFSET 0.000000 0.000000 0.000000
					CHANNELS 3 Zrotation Yrotation Xrotation
					JOINT RightArm
					{
						OFFSET -2.700000 1.550000 -0.730000
						CHANNELS 3 Zrotation Yrotation Xrotation
						JOINT RightForeArm
						{
							OFFSET -5.450000 0.000000 0.000000
							CHANNELS 3 Zrotation Yrotation Xrotation
							JOINT RightHand
							{
								OFFSET -3.450000 0.000000 0.000000
								CHANNELS 3 Zrotation Yrotation Xrotation
								JOINT RightHandIndex1
								{
									OFFSET -0.750000 0.000000 0.000000
									CHANNELS 3 Zrotation Yrotation Xrotation
									End Site
									{
										OFFSET 0.000000 0.000000 0.000000
									}
								}
							}
						}
					}
				}
			}
		}
	}
}
MOTION
Frames: 12
Frame Time: 0.016667
-0.002210 17.957650 -2.962790 -0.830261 -2.916270 -3.147387 -14.647186 11.894418 3.259868 10.645902 -3.160796 -30.054258 -6.400922 8.669283 30.792281 -0.713367 6.140592 2.345514 0.978020 0.647060 0.561390 18.933822 -11.061229 3.193348 4.940925 6.628859 -21.360021 0.756629 -6.186899 40.571691 -0.818209 -5.838777 2.342157 0.534770 0.388350 0.348790 -5.278969 0.864449 -7.669603 21.842814 -2.839527 20.525265 -14.352656 2.398639 20.462518 1.444535 -6.185862 -8.361583 -13.145218 0.080154 33.013771 2.558900 -6.291230 -18.463580 0.700030 -29.698204 2.165818 -16.464567 -48.846514 4.307646 83.756425 -46.066174 -45.461177 -3.713849 2.381055 0.493510 0.157920 -0.040920 0.443880 -4.416778 31.840839 4.914590 11.099675 36.795254 -4.311008 -92.355170 48.391628 -54.694541 1.442431 -1.050556 -0.142260 0.422980 -0.155440 -0.117750 
-0.008040 17.979130 -2.968420 -1.242830 -2.182295 -3.665139 -14.674479 11.997748 3.221326 10.431332 -3.127453 -29.517077 -6.157473 9.001406 32.285957 -0.562609 6.321345 2.302079 0.886400 0.529210 0.520260 18.902124 -10.843081 3.404760 5.264924 7.818670 -22.943676 1.349398 -6.989317 44.338534 -0.958368 -6.347186 2.210752 0.401510 0.345210 0.316140 -5.188045 0.502755 -7.843122 21.852261 -3.716839 22.743180 -14.483464 2.011020 19.321263 1.909752 -6.853869 -9.691854 -15.200073 0.259651 34.573902 3.601810 -6.681740 -19.450240 -2.095695 -29.544937 3.249133 -19.881476 -47.026172 5.128271 88.936685 -50.904152 -53.449551 -3.608575 2.123914 0.558130 0.080940 -0.002980 0.427260 -2.471595 32.315513 6.431269 12.871863 34.591433 -4.618658 -98.654143 51.702919 -64.080059 1.516053 -0.753428 -0.137860 0.400640 -0.151520 -0.114760 
-0.028130 18.001900 -2.976440 -0.936541 1.119048 -4.959874 -14.758345 12.161593 3.086881 8.461098 -3.655703 -28.667904 -3.586792 8.693838 36.034839 -0.377336 6.528243 2.238101 0.841550 0.460020 0.525350 18.827088 -10.457647 3.744639 2.997679 9.706036 -26.938410 4.575593 -10.487144 52.570707 -1.345098 -7.933549 1.710996 0.289620 0.250430 0.290130 -4.980407 -0.144384 -8.077948 20.404922 -5.052974 26.225774 -13.960475 0.982671 18.348672 2.268675 -6.914626 -11.142130 -16.247209 0.055689 36.139871 5.590100 -7.267870 -21.643170 -4.922885 -28.525564 4.381751 -25.613593 -45.170435 6.690648 98.268648 -57.479145 -69.389175 -3.536585 1.790794 0.624480 -0.026550 0.060050 0.398980 -0.108645 31.516753 8.435891 18.048394 32.125931 -3.585741 -110.998777 55.785859 -86.451357 1.784197 -0.656227 -0.102310 0.345750 -0.175560 -0.119180 
-0.070550 17.980330 -2.959340 -0.617955 4.401854 -6.072342 -14.900261 12.292242 2.867822 7.290847 -3.849064 -27.247485 -1.309996 8.525554 39.436453 -0.229844 6.894979 2.114732 0.819990 0.411760 0.528990 18.731268 -9.812708 4.264564 -0.656582 11.996203 -32.331322 9.408727 -16.374678 62.002605 -1.942275 -10.291394 0.999192 0.220320 0.191930 0.303120 -4.662960 -1.048215 -8.365505 17.700688 -5.960072 29.333584 -12.043321 -0.185017 17.382764 2.425219 -7.097414 -12.320117 -17.133519 0.592141 36.949481 6.355730 -7.080810 -22.880650 -7.979400 -27.140994 5.972112 -31.809656 -42.384684 7.898711 110.819471 -63.897939 -94.514686 -3.703708 1.937920 0.685770 -0.090720 0.108570 0.383650 2.971642 30.829268 9.354599 23.673013 30.059286 -3.570372 -122.703874 61.848875 -113.306924 1.995623 -1.204199 -0.079900 0.295240 -0.181930 -0.127550 
-0.115890 17.930160 -2.931410 -1.111928 7.418730 -6.833791 -14.977172 12.280505 2.529174 7.051505 -3.628133 -25.828239 1.220444 7.889344 41.126919 -0.185390 6.965028 2.081854 0.820540 0.416110 0.547580 18.717002 -9.229110 4.870984 -4.496863 13.929591 -37.833784 14.977549 -23.890955 69.884288 -2.620959 -12.759200 0.344205 0.203070 0.137830 0.280840 -4.546558 -1.558932 -8.612417 16.861915 -6.745352 31.274657 -10.887570 -1.201970 16.061207 2.557023 -7.002525 -12.551723 -17.414483 1.146782 38.489666 7.305350 -6.848070 -24.514440 -10.414691 -25.945820 6.746444 -39.054803 -39.160594 6.603195 131.693051 -73.074710 -133.658578 -3.463763 3.184058 0.739350 -0.151150 0.154340 0.362670 5.325992 29.728137 9.061693 30.682350 27.199174 -7.303368 -147.356405 71.326147 -153.944973 1.770944 -1.866644 -0.075920 0.298270 -0.189600 -0.138680 
-0.152220 17.850650 -2.912830 -2.236073 9.479277 -7.309741 -15.033835 12.274947 2.210936 7.492368 -3.228652 -24.789148 3.485857 7.162464 41.800472 -0.150051 6.902500 2.082485 0.830910 0.431460 0.568440 18.713015 -8.666974 5.478332 -7.896278 15.585201 -43.158292 20.157024 -31.913748 76.188243 -3.287829 -15.021278 -0.164667 0.176080 0.078900 0.286110 -4.456953 -2.051125 -8.861841 16.853369 -7.665274 33.245899 -9.846136 -2.190745 13.375567 2.886746 -7.234790 -12.427354 -18.260802 2.040315 40.120722 7.327450 -6.454400 -25.536820 -14.069241 -24.820825 6.907734 -45.603245 -33.872410 0.802321 -167.176980 -79.908089 152.377934 -3.174129 3.045122 0.777160 -0.199080 0.208400 0.345260 8.402664 28.966164 8.453125 35.759179 23.657504 -12.852598 161.092673 76.361487 142.582684 1.706925 -1.149830 -0.040540 0.274740 -0.202160 -0.140860 
-0.190100 17.720910 -2.882950 -3.582667 10.107868 -7.132154 -15.056126 12.209834 1.889214 9.065835 -2.545421 -23.903172 4.280505 7.007322 40.951272 -0.157904 6.761178 2.129417 0.847810 0.449800 0.594110 18.744468 -8.178589 6.041832 -10.448137 17.488050 -48.929784 23.867551 -39.695688 82.314173 -3.900253 -17.086545 -0.553674 0.172580 0.065640 0.284350 -4.446215 -2.304570 -9.037064 17.342048 -8.021490 33.764509 -9.086993 -2.580116 10.960021 3.076590 -7.285706 -11.851003 -18.315263 2.592153 40.773503 7.120470 -6.254970 -25.019670 -17.586957 -22.042095 6.216547 -50.775015 -29.482000 -0.195946 -106.758677 -78.437511 79.974773 -3.894560 1.786665 0.784150 -0.211440 0.232370 0.348370 11.586839 26.619685 7.741821 40.676333 21.561962 -13.806900 116.688334 74.884009 84.662203 2.874568 0.949638 -0.025330 0.282180 -0.221660 -0.136420 
-0.230810 17.580600 -2.839130 -4.721954 11.054704 -7.227782 -15.095473 12.215475 1.666492 10.513538 -2.250469 -22.854282 4.784878 6.866415 40.373999 -0.162268 6.698886 2.147477 0.892490 0.466790 0.648930 18.729131 -7.779871 6.445904 -12.305764 18.539822 -54.238681 24.565798 -47.024148 89.751195 -4.496606 -19.089007 -0.892155 0.170670 0.031840 0.314000 -4.348542 -2.653513 -9.176010 17.279238 -8.494911 34.010568 -8.716949 -3.027549 9.389277 3.205844 -6.795216 -11.507619 -17.450028 2.799857 41.659743 6.966540 -5.903930 -24.697380 -21.740168 -20.387199 5.445226 -51.968452 -25.766402 -0.696689 -71.988795 -74.579024 44.569643 -3.421022 3.372295 0.817240 -0.231360 0.270530 0.358400 15.238087 24.535137 8.088515 43.755769 20.433414 -7.451231 90.927308 76.849303 54.334215 3.416760 -0.037652 -0.004470 0.255250 -0.254000 -0.150240 
-0.276040 17.471080 -2.804410 -5.974867 11.423586 -8.680950 -15.119745 12.384505 1.467748 12.577935 -1.720814 -20.794808 4.991848 6.927991 39.732227 -0.131968 6.621865 2.155749 0.943810 0.536840 0.714640 18.674045 -7.578406 6.667325 -12.820551 19.508820 -56.709018 22.695032 -52.528402 97.448326 -5.017586 -20.720300 -1.125597 0.180050 -0.056320 0.291660 -4.230326 -2.991409 -9.305792 17.235729 -8.752413 35.942866 -8.071824 -3.012171 7.725764 3.551652 -6.543185 -11.770754 -17.738317 3.458232 44.846262 7.074310 -5.308920 -25.890310 -26.345196 -21.167046 5.194348 -50.502539 -22.598293 -5.004436 -54.277431 -66.965780 27.334746 -3.108827 3.498906 0.866520 -0.306450 0.351300 0.357970 19.183184 25.373569 8.850745 44.406041 16.777366 -9.967307 70.946987 71.391973 36.526316 2.526081 -1.451771 0.023660 0.251360 -0.309880 -0.158710 
-0.337900 17.389100 -2.793310 -7.343203 10.941459 -10.222546 -15.148881 12.501303 1.388387 15.213653 -1.169928 -19.318151 4.475027 7.563088 39.748642 -0.140464 6.800897 2.040072 0.979980 0.563700 0.794140 18.612254 -7.434038 6.776773 -13.561896 20.018871 -57.519893 20.340916 -56.087626 103.276560 -5.377011 -21.823158 -1.276657 0.181810 -0.149400 0.285590 -4.090778 -3.230767 -9.435024 17.056958 -8.414331 38.014932 -7.858495 -2.391324 7.093849 4.119499 -5.437767 -12.617157 -16.555746 3.892482 49.531993 7.107000 -4.295040 -27.670470 -29.643637 -23.310475 5.545459 -47.097870 -20.256057 -8.040124 -46.431392 -62.549122 20.045032 -2.949379 3.455298 0.960730 -0.372720 0.428740 0.318370 21.376684 27.202990 9.925681 45.118927 13.645675 -13.576877 59.908236 68.241320 27.399701 2.243819 -1.621654 0.025450 0.248550 -0.321340 -0.209290 
-0.401700 17.318060 -2.783180 -8.668204 10.109735 -11.509399 -15.172568 12.448474 1.387945 18.038671 -0.665556 -19.021722 4.000330 8.415389 40.734509 -0.106285 7.159010 1.838702 1.021550 0.611160 0.855760 18.591767 -7.276305 6.850557 -15.195039 19.936640 -58.205910 17.182452 -58.869456 108.967607 -5.690742 -22.833415 -1.427176 0.184950 -0.232900 0.332440 -4.010834 -3.280363 -9.549324 17.009818 -8.163995 39.630880 -8.125170 -2.052865 7.358252 4.643072 -4.278419 -12.994649 -14.394560 3.904737 52.295591 6.524050 -2.944220 -29.911110 -30.090956 -24.098360 5.697194 -44.590426 -18.670301 -9.507935 -48.166733 -62.844547 21.082071 -2.889281 3.496900 1.018290 -0.412740 0.509000 0.280650 20.774901 27.482678 10.335496 47.064554 12.464196 -15.301806 57.019403 69.184725 25.466361 2.194450 -1.620321 0.067950 0.204320 -0.323220 -0.237840 
-0.488470 17.247720 -2.761780 -9.115220 9.598582 -12.167559 -15.217873 12.319195 1.400411 19.569436 -0.175715 -19.919468 4.482200 9.146496 43.012983 -0.029149 7.715887 1.655640 0.956230 0.512620 0.812740 18.588338 -7.007667 6.991883 -18.233399 19.664801 -59.791315 11.847153 -61.550423 117.323559 -6.017552 -24.212730 -1.569483 0.138970 -0.177300 0.343120 -3.922255 -3.404734 -9.669205 16.384389 -7.417121 41.282581 -7.390399 -1.820671 6.490710 4.180703 -4.594387 -12.549055 -14.765471 3.937827 50.800671 6.748850 -2.939020 -29.466680 -28.872806 -22.084868 5.031699 -43.870096 -17.190243 -8.762777 -62.147640 -67.229295 32.485526 -3.041089 3.497346 1.022230 -0.379740 0.465760 0.270480 20.499605 25.630735 10.255655 47.477662 10.864190 -14.227225 68.570816 72.701795 34.285415 2.439274 -1.417524 0.032000 0.209610 -0.278490 -0.244220 
